<svg width="16" height="16" viewBox="0 0 16 16" fill="none" xmlns="http://www.w3.org/2000/svg">
<path d="M6.90015 6.39533C6.90015 5.96839 6.56435 5.62228 6.15015 5.62228C5.73594 5.62228 5.40015 5.96839 5.40015 6.39533C5.40015 6.82226 5.73594 7.16838 6.15015 7.16838C6.56435 7.16838 6.90015 6.82226 6.90015 6.39533ZM10.2751 9.53379C9.91776 9.31769 9.4581 9.44126 9.24901 9.81021C9.24844 9.8108 9.24844 9.81138 9.24787 9.81255C8.9814 10.2951 8.38651 10.4638 7.91833 10.1891C7.76549 10.0995 7.63992 9.96951 7.55299 9.81255C7.34446 9.4436 6.88537 9.31827 6.52742 9.5332C6.52685 9.53379 6.52628 9.53437 6.52515 9.53437C6.16776 9.74638 6.0439 10.2161 6.24787 10.5856C6.93083 11.8108 8.44844 12.2336 9.63708 11.5297C10.0183 11.3042 10.3337 10.9786 10.553 10.5856C10.7564 10.2155 10.6325 9.74638 10.2751 9.53379ZM10.6501 5.62228C10.2359 5.62228 9.90015 5.96839 9.90015 6.39533C9.90015 6.82226 10.2359 7.16838 10.6501 7.16838C11.0644 7.16838 11.4001 6.82226 11.4001 6.39533C11.4001 5.96839 11.0644 5.62228 10.6501 5.62228ZM8.40015 0.210938C4.2581 0.210938 0.900146 3.67209 0.900146 7.94142C0.900146 12.2108 4.2581 15.6719 8.40015 15.6719C12.5422 15.6719 15.9001 12.2108 15.9001 7.94142C15.9001 3.67209 12.5422 0.210938 8.40015 0.210938ZM8.40015 14.1258C5.08651 14.1405 2.38878 11.3838 2.37401 7.96836C2.36378 5.42785 3.86094 3.13915 6.15015 2.19744C6.14276 2.30812 6.14276 2.4194 6.15015 2.53008C6.15015 3.81088 7.15753 4.84923 8.40015 4.84923C8.81435 4.84923 9.15015 4.50311 9.15015 4.07618C9.15015 3.64925 8.81435 3.30313 8.40015 3.30313C7.98594 3.30313 7.65015 2.95702 7.65015 2.53008C7.65015 2.10315 7.98594 1.75703 8.40015 1.75703C11.7138 1.75703 14.4001 4.52595 14.4001 7.94142C14.4001 11.3569 11.7138 14.1258 8.40015 14.1258Z" fill="#63C3D1"/>
</svg>
