<svg width="146" height="26" viewBox="0 0 146 26" fill="none" xmlns="http://www.w3.org/2000/svg">
<path d="M2.79999 5.87793L0.241211 20.6015H0.938536L3.49732 5.87793H2.79999Z" fill="#1D4459"/>
<path d="M12.7674 9.93103C12.0671 9.30903 11.1451 8.99365 10.0213 8.99365C8.97528 8.99365 7.98116 9.28275 7.07349 9.85511C6.42227 10.2639 5.88342 10.8246 5.46272 11.5284L5.86325 9.23895H5.16881L3.1748 20.6014H3.87213L4.94405 14.4953C5.2322 12.895 5.83444 11.6744 6.72771 10.8684C7.62097 10.0624 8.70154 9.65362 9.94059 9.65362C10.9491 9.65362 11.7473 9.91935 12.3121 10.445C12.8711 10.9677 13.1564 11.7474 13.1564 12.7665C13.1564 13.1111 13.116 13.5024 13.0382 13.9317L11.8741 20.6014H12.5512L13.7038 14.0251C13.7845 13.5667 13.8277 13.1374 13.8277 12.749C13.8277 11.505 13.4704 10.5589 12.7674 9.93103Z" fill="#1D4459"/>
<path d="M26.7083 9.23337L26.204 11.9959C26.0023 11.2425 25.6133 10.6088 25.0428 10.1007C24.2763 9.42027 23.2303 9.07568 21.9336 9.07568C20.8646 9.07568 19.8618 9.30638 18.957 9.76193C18.0494 10.2175 17.2829 10.8745 16.6806 11.7126C16.0784 12.5507 15.6663 13.5523 15.4618 14.6883C15.3782 15.1438 15.3379 15.5848 15.3379 15.9995C15.3379 17.3398 15.7586 18.4145 16.5884 19.1883C17.4154 19.9622 18.5479 20.3535 19.954 20.3535C21.2305 20.3535 22.3889 20.0089 23.3917 19.3314C24.1409 18.8262 24.7575 18.1984 25.233 17.4596L24.6855 20.4206C24.5299 21.2879 24.1985 22.0618 23.7 22.7188C23.2044 23.3759 22.5877 23.8869 21.8702 24.2373C21.1527 24.5878 20.3834 24.7659 19.5852 24.7659C18.398 24.7659 17.4558 24.4972 16.793 23.9658C16.1303 23.4401 15.724 22.6984 15.5828 21.7668L15.5626 21.6442H14.8682L14.8912 21.8106C15.0439 22.9116 15.5223 23.7964 16.3089 24.4447C17.0927 25.09 18.1704 25.4171 19.5045 25.4171C20.3719 25.4171 21.2277 25.2185 22.0547 24.8301C22.8816 24.4388 23.5963 23.8635 24.1812 23.1189C24.7662 22.3713 25.1552 21.4836 25.3338 20.4761L27.3682 9.23629H26.7083V9.23337ZM22.5964 19.0511C21.7982 19.4599 20.928 19.6672 20.0117 19.6672C18.7611 19.6672 17.7727 19.3343 17.0754 18.6773C16.381 18.0232 16.0294 17.1033 16.0294 15.9381C16.0294 15.5673 16.0698 15.1643 16.1476 14.7379C16.4242 13.1844 17.0812 11.9462 18.1012 11.0585C19.1213 10.1708 20.3834 9.72105 21.8501 9.72105C23.0603 9.72105 24.0371 10.0773 24.7546 10.7782C25.4692 11.479 25.8323 12.4368 25.8323 13.6283C25.8323 13.9203 25.7977 14.2795 25.7343 14.6883C25.5499 15.6782 25.1782 16.5572 24.6278 17.3048C24.0775 18.0553 23.3946 18.6422 22.5964 19.0511Z" fill="#1D4459"/>
<path d="M34.4389 8.99365C32.3584 8.99365 30.8456 9.72078 29.9264 11.1546L30.2607 9.23895H29.5633L27.5693 20.6014H28.2667L29.4596 13.739C29.7334 12.3344 30.3212 11.3064 31.2 10.6844C32.0875 10.0566 33.0874 9.7383 34.1709 9.7383H34.4734L34.606 8.99657H34.4389V8.99365Z" fill="#1D4459"/>
<path d="M44.3509 11.1401C44.0225 10.5298 43.5211 10.0333 42.8583 9.65662C42.1985 9.28284 41.383 9.09595 40.4321 9.09595C39.4034 9.09595 38.4266 9.32956 37.5362 9.78803C36.6429 10.2465 35.8793 10.9269 35.2684 11.803C34.6575 12.679 34.2455 13.7186 34.0409 14.8955C33.9602 15.3656 33.917 15.8153 33.917 16.2329C33.917 17.6346 34.3348 18.7501 35.156 19.5473C35.9744 20.3416 37.0838 20.7446 38.4525 20.7446C39.8644 20.7446 41.1064 20.3737 42.1351 19.6408C43.1666 18.9078 43.8928 17.9354 44.2933 16.7498L44.3596 16.557H43.6507L43.6162 16.6563C43.2646 17.6988 42.6192 18.5399 41.7 19.156C40.7779 19.7722 39.706 20.0846 38.513 20.0846C37.3806 20.0846 36.4326 19.7547 35.6949 19.1064C34.963 18.461 34.5913 17.4944 34.5913 16.2329C34.5913 15.9672 34.6201 15.6372 34.6719 15.2517H44.4374L44.472 15.1583C44.5699 14.9042 44.6679 14.5246 44.763 14.0194C44.8177 13.6252 44.8466 13.3448 44.8466 13.1579C44.8437 12.425 44.6766 11.7475 44.3509 11.1401ZM44.1694 13.301C44.1694 13.6807 44.1175 14.1158 44.0167 14.5888H34.7987C35.0033 13.558 35.3808 12.679 35.9225 11.9753C36.4931 11.2335 37.1731 10.6699 37.9425 10.3049C38.7147 9.93988 39.5331 9.75591 40.3687 9.75591C41.4493 9.75591 42.3627 10.0596 43.0888 10.6553C43.8063 11.2481 44.1694 12.1359 44.1694 13.301Z" fill="#1D4459"/>
<path d="M52.9905 10.0362C52.3248 9.41133 51.3566 9.09595 50.1118 9.09595C49.1552 9.09595 48.3512 9.32664 47.7231 9.77927C47.0862 10.2377 46.6944 10.8773 46.5532 11.6774C46.5128 11.9315 46.4898 12.1592 46.4898 12.3578C46.4898 12.936 46.6367 13.4091 46.9278 13.7624C47.2101 14.107 47.5588 14.3727 47.9622 14.5509C48.3483 14.7232 48.8872 14.913 49.5672 15.1203C50.2213 15.3101 50.7486 15.4912 51.1376 15.6576C51.5122 15.8182 51.8292 16.0606 52.0828 16.3731C52.3306 16.6797 52.4545 17.0944 52.4545 17.6025C52.4545 17.7718 52.4343 17.9704 52.3969 18.1894C52.296 18.7443 52.0165 19.1881 51.5411 19.5444C51.0714 19.8977 50.4663 20.0788 49.7459 20.0788C48.5212 20.0788 47.602 19.8014 47.0113 19.2553C46.4206 18.7092 46.1642 18.0434 46.2276 17.2228L46.2391 17.0652H45.5446L45.536 17.2024C45.4668 18.2858 45.8126 19.1589 46.5676 19.7955C47.311 20.4234 48.3541 20.7417 49.6652 20.7417C50.5815 20.7417 51.3566 20.511 51.9646 20.0584C52.5784 19.5999 52.9559 18.9896 53.0827 18.2391C53.1374 17.8448 53.1662 17.5908 53.1662 17.4594C53.1662 16.8257 53.0077 16.3088 52.6994 15.9234C52.3969 15.5437 52.0194 15.2546 51.5843 15.0619C51.1607 14.875 50.5902 14.6764 49.89 14.472C49.2647 14.2822 48.7633 14.1099 48.3973 13.9552C48.0487 13.8091 47.7548 13.593 47.5214 13.3185C47.2966 13.0528 47.1813 12.6965 47.1813 12.2556C47.1813 11.5285 47.4378 10.9415 47.9622 10.4684C48.4867 9.99537 49.1897 9.75591 50.0513 9.75591C51.178 9.75591 52.0079 10.0304 52.515 10.5706C53.0221 11.1109 53.2556 11.8 53.2037 12.6148L53.195 12.7696H53.8895L53.8981 12.6323C53.9673 11.5401 53.6618 10.667 52.9905 10.0362Z" fill="#1D4459"/>
<path d="M62.0471 10.0362C61.3815 9.41133 60.4133 9.09595 59.1685 9.09595C58.2118 9.09595 57.4079 9.32664 56.7797 9.77927C56.1429 10.2377 55.751 10.8773 55.6098 11.6774C55.5695 11.9315 55.5464 12.1592 55.5464 12.3578C55.5464 12.936 55.6934 13.4091 55.9844 13.7624C56.2668 14.107 56.6155 14.3727 57.0189 14.5509C57.405 14.7232 57.9438 14.913 58.6239 15.1203C59.278 15.3101 59.8053 15.4912 60.1943 15.6576C60.5689 15.8182 60.8858 16.0606 61.1394 16.3731C61.3872 16.6797 61.5111 17.0944 61.5111 17.6025C61.5111 17.7718 61.491 17.9704 61.4535 18.1894C61.3527 18.7443 61.0731 19.1881 60.5977 19.5444C60.128 19.8977 59.5229 20.0788 58.8025 20.0788C57.5779 20.0788 56.6587 19.8014 56.068 19.2553C55.4773 18.7092 55.2208 18.0434 55.2842 17.2228L55.2957 17.0652H54.6013L54.5926 17.2024C54.5235 18.2858 54.8693 19.1589 55.6242 19.7955C56.3676 20.4234 57.4107 20.7417 58.7218 20.7417C59.6382 20.7417 60.4133 20.511 61.0213 20.0584C61.635 19.5999 62.0125 18.9896 62.1393 18.2391C62.1941 17.8448 62.2229 17.5908 62.2229 17.4594C62.2229 16.8257 62.0644 16.3088 61.7561 15.9234C61.4535 15.5437 61.076 15.2546 60.6409 15.0619C60.2173 14.875 59.6468 14.6764 58.9466 14.472C58.3213 14.2822 57.8199 14.1099 57.454 13.9552C57.1053 13.8091 56.8114 13.593 56.578 13.3185C56.3532 13.0528 56.238 12.6965 56.238 12.2556C56.238 11.5285 56.4944 10.9415 57.0189 10.4684C57.5433 9.99537 58.2464 9.75591 59.108 9.75591C60.2346 9.75591 61.0645 10.0304 61.5716 10.5706C62.0874 11.1196 62.3122 11.7884 62.2603 12.6148L62.2517 12.7696H62.9461L62.9548 12.6323C63.0239 11.5401 62.7185 10.667 62.0471 10.0362Z" fill="#1D4459"/>
<path d="M74.0693 10.3049C73.2365 9.50185 72.1127 9.09595 70.7325 9.09595C69.7038 9.09595 68.7212 9.33248 67.8164 9.79971C66.9087 10.2669 66.1336 10.9444 65.5083 11.8117C64.8859 12.679 64.4652 13.7186 64.2606 14.8955C64.1799 15.3539 64.1367 15.7949 64.1367 16.2125C64.1367 17.6142 64.5632 18.7326 65.4046 19.5386C66.2431 20.3416 67.3698 20.7475 68.75 20.7475C69.7816 20.7475 70.7613 20.511 71.6661 20.0438C72.5738 19.5765 73.346 18.899 73.9627 18.0317C74.5793 17.1644 74.9971 16.1249 75.2017 14.948C75.2853 14.4895 75.3256 14.0457 75.3256 13.631C75.3285 12.2264 74.9049 11.108 74.0693 10.3049ZM74.637 13.6485C74.637 14.0369 74.5966 14.4545 74.5188 14.8955C74.3229 16.0402 73.9252 17.0126 73.3432 17.7835C72.7582 18.5545 72.0666 19.1356 71.2829 19.5152C70.4962 19.8919 69.6663 20.0846 68.8163 20.0846C67.6695 20.0846 66.707 19.7488 65.9578 19.0859C65.2115 18.4289 64.834 17.4477 64.834 16.1716C64.834 15.7978 64.8744 15.386 64.9522 14.9451C65.1481 13.8121 65.5458 12.8426 66.1278 12.0658C66.7099 11.289 67.4072 10.7021 68.1997 10.3253C68.9921 9.94572 69.8248 9.75591 70.6778 9.75591C71.8246 9.75591 72.7813 10.0888 73.5276 10.7459C74.2624 11.3971 74.637 12.3724 74.637 13.6485Z" fill="#1D4459"/>
<path d="M95.4386 5.47477C94.8652 4.20156 93.9431 3.17658 92.6666 2.40273C91.3929 1.62887 89.7389 1.24341 87.7104 1.24341H85.8691V4.16944H87.5548C88.5086 4.16944 89.4162 4.35926 90.2749 4.73596C91.1336 5.11559 91.8396 5.72591 92.3957 6.56984C92.9518 7.41378 93.2285 8.48549 93.2285 9.7879C93.2285 9.96311 93.2112 10.2639 93.1766 10.6844C93.021 12.8658 92.2949 14.5449 91.0039 15.7217C89.7101 16.8986 88.0677 17.4884 86.0737 17.4884H82.7686L83.1778 14.1215H80.1464L79.3828 20.4408H86.1745C87.8746 20.4408 89.4652 20.0553 90.9492 19.2814C92.4332 18.5076 93.6463 17.4008 94.5914 15.9583C95.5365 14.5157 96.0869 12.8278 96.2425 10.8946C96.2771 10.3661 96.2944 9.97187 96.2944 9.70905C96.2973 8.16135 96.012 6.75089 95.4386 5.47477Z" fill="#1D4459"/>
<path d="M85.917 6.40047C85.5885 6.40047 85.2773 6.4764 85.0007 6.60489L83.9374 5.2616L83.9346 5.26452C84.2861 4.84109 84.4993 4.30961 84.4993 3.73141C84.4993 2.356 83.315 1.24341 81.8512 1.24341C80.3874 1.24341 79.2031 2.35892 79.2031 3.73141C79.2031 5.10391 80.3874 6.21942 81.8512 6.21942C82.4391 6.21942 82.9808 6.03545 83.4217 5.73175L84.4302 7.00495C84.0844 7.34953 83.8712 7.81093 83.8712 8.32196C83.8712 8.79795 84.0556 9.23306 84.3639 9.5718L83.024 10.3573C82.7531 10.1704 82.4189 10.0595 82.0558 10.0595C81.1453 10.0595 80.4076 10.7545 80.4076 11.6101C80.4076 12.4657 81.1453 13.1607 82.0558 13.1607C82.9664 13.1607 83.704 12.4657 83.704 11.6101C83.704 11.3473 83.6349 11.102 83.511 10.883L84.9719 10.0274C85.2543 10.1675 85.577 10.2464 85.917 10.2464C87.0466 10.2464 87.9629 9.38491 87.9629 8.32196C87.9658 7.26193 87.0495 6.40047 85.917 6.40047Z" fill="#63C3D1"/>
<path d="M96.2969 20.4408H99.187L100.53 9.37622H97.6397L96.2969 20.4408Z" fill="#1D4459"/>
<path d="M100.722 4.27762C100.403 4.03233 100.031 3.9126 99.5986 3.9126C99.1001 3.9126 98.6852 4.07029 98.3595 4.38275C98.0311 4.69521 97.861 5.08944 97.8438 5.55959C97.8438 6.02974 98.008 6.38892 98.3336 6.6313C98.6592 6.8766 99.0309 7.00508 99.443 7.02261C99.9415 7.02261 100.359 6.86199 100.694 6.53785C101.028 6.21663 101.198 5.81949 101.198 5.34641C101.201 4.87918 101.042 4.52292 100.722 4.27762Z" fill="#1D4459"/>
<path d="M114.291 20.4408H117.181L118.521 9.37622H115.631L114.291 20.4408Z" fill="#1D4459"/>
<path d="M116.04 6.63129C116.365 6.87659 116.737 7.00507 117.149 7.02259C117.647 7.02259 118.065 6.86198 118.4 6.53784C118.734 6.21662 118.904 5.81948 118.904 5.3464C118.904 4.87625 118.745 4.51707 118.425 4.27469C118.106 4.0294 117.734 3.90967 117.302 3.90967C116.803 3.90967 116.388 4.06736 116.063 4.37982C115.737 4.69228 115.564 5.08651 115.547 5.55666C115.55 6.02973 115.714 6.38599 116.04 6.63129Z" fill="#1D4459"/>
<path d="M125.229 4.61328L124.661 9.47833H127.5L127.24 11.7794H124.376L123.319 20.54H120.429L121.486 11.7794H119.602L119.887 9.47833H121.771L122.339 4.61328H125.229Z" fill="#1D4459"/>
<path d="M140.585 9.37608L139.268 20.4407H136.378L136.559 18.8463C136.113 19.3164 135.513 19.7457 134.767 20.1282C134.018 20.5108 133.136 20.6948 132.122 20.6772C131.33 20.6948 130.577 20.4845 129.863 20.0494C129.148 19.6143 128.578 18.9806 128.145 18.1542C127.716 17.3248 127.5 16.3729 127.5 15.2895C127.5 14.2265 127.754 13.2015 128.261 12.2174C128.768 11.2333 129.485 10.4303 130.416 9.81119C131.344 9.19211 132.413 8.88257 133.617 8.88257C135.441 8.88257 136.741 9.56297 137.513 10.9238L137.925 9.38192H140.585V9.37608ZM136.948 16.0487C137.044 15.7859 137.683 13.9491 136.793 12.6117C136.536 12.2291 136.214 11.9692 136.159 11.9283C135.6 11.502 134.923 11.2888 134.133 11.2888C133.306 11.2888 132.623 11.4815 132.082 11.8641C131.54 12.2466 131.139 12.7226 130.883 13.2891C130.624 13.8557 130.497 14.4105 130.497 14.9507C130.497 15.9611 130.794 16.7788 131.387 17.3949C131.981 18.014 132.759 18.3236 133.724 18.3236C133.897 18.3236 134.73 18.2885 135.583 17.722C136.433 17.1526 136.813 16.3729 136.948 16.0487Z" fill="#1D4459"/>
<path d="M114.286 9.37606H111.626L111.214 10.9179C110.439 9.55711 109.139 8.87671 107.318 8.87671C106.114 8.87671 105.048 9.18625 104.117 9.80533C103.189 10.4244 102.469 11.2275 101.961 12.2116C101.454 13.1957 101.201 14.2207 101.201 15.2836C101.201 16.3641 101.417 17.319 101.846 18.1483C102.276 18.9777 102.849 19.6084 103.564 20.0435C104.278 20.4786 105.03 20.6889 105.823 20.6714C106.837 20.6889 107.719 20.5049 108.468 20.1224C109.217 19.7398 109.814 19.3106 110.26 18.8404L110.162 19.7136L110.07 20.5166C109.966 21.4073 109.609 22.1081 108.998 22.6221C108.387 23.136 107.618 23.393 106.687 23.393C105.843 23.393 105.117 23.2499 104.506 22.9608C103.895 22.6717 103.322 22.2512 102.788 21.6934L100.826 23.6821C101.584 24.4151 102.374 24.9757 103.201 25.37C104.028 25.7613 105.102 25.9598 106.428 25.9598C108.183 25.9598 109.655 25.516 110.842 24.6253C112.029 23.7347 112.733 22.5286 112.903 21.0101L112.969 20.4378L114.286 9.37606ZM109.281 17.722C108.428 18.2885 107.595 18.3235 107.422 18.3235C106.46 18.3235 105.679 18.014 105.085 17.3949C104.491 16.7758 104.195 15.9611 104.195 14.9507C104.195 14.4105 104.324 13.8556 104.581 13.2891C104.84 12.7226 105.238 12.2466 105.779 11.8641C106.321 11.4815 107.004 11.2888 107.831 11.2888C108.624 11.2888 109.298 11.502 109.857 11.9283C109.912 11.9692 110.234 12.2291 110.491 12.6116C111.381 13.9491 110.741 15.7888 110.646 16.0487C110.514 16.3728 110.136 17.1525 109.281 17.722Z" fill="#1D4459"/>
<path d="M145.928 0.0402832L143.476 20.4408H140.586L143.038 0.0402832H145.928Z" fill="#1D4459"/>
</svg>
