<svg xmlns="http://www.w3.org/2000/svg" viewBox="0 0 60.23 59.83"><defs><style>.cls-1{fill:#fff;}.cls-1,.cls-2{fill-rule:evenodd;}</style></defs><g id="Layer_2" data-name="Layer 2"><g id="Layer_1-2" data-name="Layer 1"><path class="cls-1" d="M33.15,3a24.1,24.1,0,0,0-19.07,9.3A23.71,23.71,0,0,0,9,26.94v4.44a7.4,7.4,0,0,1-2,5.11,7.47,7.47,0,0,1-3.6,2.09,17.75,17.75,0,0,0,3.8,5.29,23.83,23.83,0,0,0,6.07,4.47v-.05a7.59,7.59,0,0,1,6.33-3.42A8.4,8.4,0,0,1,21,45a7.52,7.52,0,0,1,6,5.88h6.16a24.24,24.24,0,0,0,17-7.06,23.8,23.8,0,0,0,5.21-26.07A24.07,24.07,0,0,0,33.15,3Z"/><path class="cls-2" d="M33.16,0A27,27,0,0,0,6,27v4.35c0,2.22-1.58,4.32-4.65,4.51A1.44,1.44,0,0,0,0,37.2C-.11,39.23,2.08,43,5.07,46a26.54,26.54,0,0,0,7.13,5.1,7.49,7.49,0,0,0,7.41,8.76h.05a7.48,7.48,0,0,0,7.34-6h6.31a7.48,7.48,0,0,0,7.37,6,8.44,8.44,0,0,0,2.61-.43,7.12,7.12,0,0,0,4.44-4.33,7.62,7.62,0,0,0,0-5.47,27.15,27.15,0,0,0,4.6-3.67,26.75,26.75,0,0,0,0-38A27,27,0,0,0,33.16,0Zm0,3A24.07,24.07,0,0,1,55.39,17.75a23.8,23.8,0,0,1-5.21,26.07,24.24,24.24,0,0,1-17,7.06H27A7.52,7.52,0,0,0,21,45a8.4,8.4,0,0,0-1.41-.13,7.59,7.59,0,0,0-6.33,3.42v.05a23.83,23.83,0,0,1-6.07-4.47,17.75,17.75,0,0,1-3.8-5.29A7.47,7.47,0,0,0,7,36.49a7.4,7.4,0,0,0,2-5.11V26.94a23.71,23.71,0,0,1,5.05-14.66A24.1,24.1,0,0,1,33.15,3Z"/><path class="cls-2" d="M45.18,17.94a3,3,0,1,0,3,3A3,3,0,0,0,45.18,17.94Z"/><path class="cls-2" d="M27.11,17.94a3,3,0,1,0,3,3A3,3,0,0,0,27.11,17.94Z"/><path class="cls-2" d="M26.66,29.88A1.49,1.49,0,0,0,25.3,32a12.08,12.08,0,0,0,21.79,0,1.49,1.49,0,0,0-1.36-2.11h0a1.5,1.5,0,0,0-1.34.85,9,9,0,0,1-16.31,0h0A1.53,1.53,0,0,0,26.66,29.88Z"/></g></g></svg>